<?xml version="1.0" standalone="no"?><!DOCTYPE svg PUBLIC "-//W3C//DTD SVG 1.1//EN" "http://www.w3.org/Graphics/SVG/1.1/DTD/svg11.dtd"><svg t="1670397553063" class="icon" viewBox="0 0 1024 1024" version="1.1" xmlns="http://www.w3.org/2000/svg" p-id="17058" data-spm-anchor-id="a313x.7781069.0.i21" xmlns:xlink="http://www.w3.org/1999/xlink" width="200" height="200"><path d="M692.79 740.37h104.48c72 0 130.33-59.61 128.25-132-2-69.61-60-124.56-129.62-124.56h-83.52v-83.24A200.53 200.53 0 0 0 671 279.11a177.4 177.4 0 0 0-77-17.47c-98.81 0-179.19 80.83-179.19 180.19v45.43h-45.14c-67.89 0-123.12 55.53-123.12 123.79s55.23 129.79 123.12 129.79h319.59a13.73 13.73 0 0 1 3.53-0.47z" fill="#FFE048" p-id="17059" data-spm-anchor-id="a313x.7781069.0.i23" class=""></path><path d="M503 171.83c-125.18 0-227 101.84-227 227V456a0.08 0.08 0 0 1-0.08 0.07h-55.58c-87.49 0-159.11 71.3-157.55 158.78 1.5 84.71 70.89 153.15 156 153.15h104.42A13.83 13.83 0 0 0 337 754.2a13.83 13.83 0 0 0-13.83-13.83H218.74A128.46 128.46 0 0 1 90.42 612.06c0-70.74 57.56-128.3 128.32-128.3h84.82a0.08 0.08 0 0 0 0.08-0.07v-84.83c0-108.75 87.51-197.44 195.81-199.34 111.6-2 202.93 89.57 202.93 201.19v83a0.07 0.07 0 0 0 0.07 0.07h83.31c72 0 131.07 58.61 129.8 130.6a128.46 128.46 0 0 1-128.29 126H682.79A13.83 13.83 0 0 0 669 754.2a13.83 13.83 0 0 0 13.79 13.8h102.87c87.49 0 159.11-71.3 157.55-158.78-1.5-84.71-70.87-153.15-155.94-153.15h-57.16a0.07 0.07 0 0 1-0.11-0.07v-57.14c0-125.19-101.85-227-227-227z" fill="#2c2c2c" p-id="17060" data-spm-anchor-id="a313x.7781069.0.i20" class=""></path><path d="M502.51 506a27.59 27.59 0 0 0-19.46 8L383 613.26l0.09 0.09a13.67 13.67 0 0 0-4.67 10.2 13.83 13.83 0 0 0 13.83 13.83 13.66 13.66 0 0 0 10.12-4.56l0.1 0.1 86.18-85.49v293.15a13.83 13.83 0 0 0 27.66 0V547.17l86.46 85.05 0.15-0.15a13.66 13.66 0 0 0 10.08 4.55 13.83 13.83 0 0 0 13.83-13.83 13.63 13.63 0 0 0-4.78-10.27l0.06-0.07-100.24-98.55a27.58 27.58 0 0 0-19.36-7.9z" fill="#2c2c2c" p-id="17061" data-spm-anchor-id="a313x.7781069.0.i22" class=""></path></svg>